<svg width="607" height="568" viewBox="0 0 607 568" fill="none" xmlns="http://www.w3.org/2000/svg">
<g opacity="0.51">
<path d="M114 90L303.933 288.978L114 478.911" stroke="#1FBD53" stroke-width="4" stroke-linecap="round"/>
<path d="M493.933 90L304 288.978L493.933 478.911" stroke="#D9D9D9" stroke-width="4" stroke-linecap="round"/>
</g>
<rect width="607" height="568" rx="13" fill="#1E284B" fill-opacity="0.35"/>
<path d="M135.2 306.248L140.704 305.672V264.84L135.584 264.072V261.448H143.392C144.544 261.448 146.187 261.363 148.32 261.192C150.368 261.021 151.883 260.936 152.864 260.936C158.965 260.936 163.317 261.96 165.92 264.008C168.523 266.056 169.824 269.213 169.824 273.48C169.824 276.595 168.949 279.411 167.2 281.928C165.493 284.445 163.168 286.131 160.224 286.984C161.333 287.709 162.443 288.925 163.552 290.632C164.704 292.296 166.112 294.621 167.776 297.608C169.227 300.211 170.379 302.173 171.232 303.496C172.128 304.776 172.917 305.48 173.6 305.608L176.288 306.312V309H168.8C168.117 309 167.328 308.275 166.432 306.824C165.536 305.373 164.277 303.027 162.656 299.784C160.907 296.243 159.456 293.533 158.304 291.656C157.195 289.779 156.085 288.52 154.976 287.88C149.771 287.88 146.763 287.859 145.952 287.816V305.672L152.544 306.248V309H135.2V306.248ZM154.592 284.744C157.536 284.744 159.861 283.827 161.568 281.992C163.275 280.157 164.128 277.469 164.128 273.928C164.128 270.813 163.253 268.403 161.504 266.696C159.755 264.947 156.704 264.072 152.352 264.072C150.859 264.072 149.387 264.157 147.936 264.328C146.912 264.413 146.251 264.456 145.952 264.456V284.68C146.72 284.723 148.256 284.744 150.56 284.744H154.592ZM202.487 309.704C197.538 309.704 193.719 308.019 191.031 304.648C188.386 301.235 187.063 296.712 187.063 291.08C187.063 287.453 187.767 284.232 189.175 281.416C190.583 278.6 192.524 276.424 194.999 274.888C197.516 273.309 200.332 272.52 203.447 272.52C207.244 272.52 210.188 273.608 212.279 275.784C214.412 277.96 215.564 281.096 215.735 285.192C215.735 287.837 215.607 289.715 215.351 290.824H192.567C192.567 295.304 193.57 298.973 195.575 301.832C197.623 304.648 200.482 306.056 204.151 306.056C205.943 306.056 207.778 305.736 209.655 305.096C211.532 304.456 212.983 303.688 214.007 302.792L215.031 305.16C213.794 306.44 211.98 307.528 209.591 308.424C207.244 309.277 204.876 309.704 202.487 309.704ZM209.975 287.816C210.103 286.92 210.167 285.981 210.167 285C210.124 282.184 209.442 279.944 208.119 278.28C206.839 276.616 204.855 275.784 202.167 275.784C196.322 275.784 193.143 279.795 192.631 287.816H209.975ZM234.426 303.944C234.895 304.669 235.876 305.309 237.37 305.864C238.863 306.419 240.463 306.696 242.17 306.696C247.375 306.696 249.978 304.776 249.978 300.936C249.978 299.187 249.252 297.779 247.802 296.712C246.351 295.603 243.876 294.387 240.378 293.064C236.922 291.827 234.404 290.355 232.826 288.648C231.247 286.941 230.458 284.659 230.458 281.8C230.458 279.965 231.012 278.365 232.122 277C233.274 275.635 234.788 274.589 236.666 273.864C238.586 273.096 240.655 272.712 242.874 272.712C245.05 272.712 246.863 272.904 248.314 273.288C249.807 273.672 251.279 274.141 252.73 274.696V282.312H249.594L248.442 277.64C248.143 277.085 247.375 276.616 246.138 276.232C244.943 275.848 243.62 275.656 242.17 275.656C240.122 275.656 238.458 276.125 237.178 277.064C235.898 277.96 235.258 279.176 235.258 280.712C235.258 282.077 235.578 283.208 236.218 284.104C236.858 285 237.647 285.725 238.586 286.28C239.524 286.792 240.826 287.389 242.49 288.072L243.706 288.584C246.138 289.523 248.1 290.419 249.594 291.272C251.087 292.083 252.324 293.171 253.306 294.536C254.287 295.859 254.778 297.523 254.778 299.528C254.778 302.685 253.562 305.181 251.13 307.016C248.74 308.808 245.54 309.704 241.53 309.704C239.695 309.704 237.604 309.405 235.258 308.808C232.911 308.211 231.162 307.613 230.01 307.016V298.952H233.466L234.426 303.944ZM302.719 289.928C302.719 293.597 301.973 296.947 300.479 299.976C298.986 302.963 296.853 305.331 294.079 307.08C291.349 308.829 288.213 309.704 284.671 309.704C283.477 309.704 282.218 309.597 280.895 309.384C279.573 309.213 278.485 308.979 277.631 308.68L277.759 314.12V321.032L284.863 321.672V324.488H267.711V321.672L272.639 321.032V277.704L267.647 276.616V273.736L275.839 272.712H275.967L277.119 273.736V277.64C278.485 276.232 280.149 275.037 282.111 274.056C284.074 273.032 286.271 272.52 288.703 272.52C291.178 272.52 293.482 273.139 295.615 274.376C297.749 275.613 299.455 277.533 300.735 280.136C302.058 282.739 302.719 286.003 302.719 289.928ZM286.591 276.424C284.757 276.424 283.05 276.808 281.471 277.576C279.893 278.344 278.655 279.197 277.759 280.136V304.52C278.101 305.075 278.954 305.587 280.319 306.056C281.727 306.483 283.263 306.696 284.927 306.696C288.597 306.696 291.541 305.352 293.759 302.664C296.021 299.933 297.151 295.923 297.151 290.632C297.151 285.896 296.149 282.355 294.143 280.008C292.181 277.619 289.663 276.424 286.591 276.424ZM331.777 309.704C326.828 309.704 323.009 308.019 320.321 304.648C317.676 301.235 316.353 296.712 316.353 291.08C316.353 287.453 317.057 284.232 318.465 281.416C319.873 278.6 321.814 276.424 324.289 274.888C326.806 273.309 329.622 272.52 332.737 272.52C336.534 272.52 339.478 273.608 341.569 275.784C343.702 277.96 344.854 281.096 345.025 285.192C345.025 287.837 344.897 289.715 344.641 290.824H321.857C321.857 295.304 322.86 298.973 324.865 301.832C326.913 304.648 329.772 306.056 333.441 306.056C335.233 306.056 337.068 305.736 338.945 305.096C340.822 304.456 342.273 303.688 343.297 302.792L344.321 305.16C343.084 306.44 341.27 307.528 338.881 308.424C336.534 309.277 334.166 309.704 331.777 309.704ZM339.265 287.816C339.393 286.92 339.457 285.981 339.457 285C339.414 282.184 338.732 279.944 337.409 278.28C336.129 276.616 334.145 275.784 331.457 275.784C325.612 275.784 322.433 279.795 321.921 287.816H339.265ZM357.763 291.464C357.763 288.008 358.425 284.851 359.747 281.992C361.113 279.091 363.118 276.787 365.763 275.08C368.451 273.373 371.715 272.52 375.555 272.52C377.219 272.52 378.841 272.733 380.419 273.16C381.998 273.544 383.363 273.971 384.515 274.44L384.259 283.592H381.059L379.715 277.448C379.459 276.168 377.625 275.528 374.211 275.528C370.883 275.528 368.217 276.808 366.211 279.368C364.249 281.928 363.267 285.427 363.267 289.864C363.267 295.155 364.334 299.165 366.467 301.896C368.601 304.627 371.374 305.992 374.787 305.992C376.579 305.992 378.307 305.693 379.971 305.096C381.678 304.499 383.086 303.816 384.195 303.048L385.219 305.16C383.982 306.397 382.275 307.464 380.099 308.36C377.923 309.256 375.769 309.704 373.635 309.704C370.265 309.704 367.385 308.915 364.995 307.336C362.606 305.715 360.793 303.539 359.555 300.808C358.361 298.035 357.763 294.92 357.763 291.464ZM409.782 309.704C407.521 309.704 405.814 309.192 404.662 308.168C403.51 307.101 402.934 305.224 402.934 302.536V277.256H398.07V274.76C400.203 274.291 401.441 273.949 401.782 273.736C402.422 273.395 402.891 272.733 403.19 271.752C403.446 271.112 403.787 269.96 404.214 268.296C404.641 266.632 404.961 265.331 405.174 264.392H408.118V273.48H419.446V277.256H408.118V297.992C408.118 300.467 408.203 302.216 408.374 303.24C408.545 304.221 408.886 304.861 409.398 305.16C409.91 305.459 410.806 305.608 412.086 305.608C413.323 305.608 414.71 305.437 416.246 305.096C417.782 304.755 418.934 304.392 419.702 304.008L420.534 306.44C419.553 307.208 417.931 307.955 415.67 308.68C413.409 309.363 411.446 309.704 409.782 309.704ZM472.41 284.936L458.906 264.968L453.978 264.2V261.448H471.898V264.2L465.37 264.968L476.122 282.184L486.746 264.904L480.986 264.2V261.448H496.282V264.2L491.226 264.968L477.85 284.296L492.378 305.672L497.498 306.248V309H479.642V306.248L485.914 305.672L474.266 287.112L463.066 305.672L469.658 306.248V309H452.826V306.248L458.394 305.672L472.41 284.936Z" fill="white"/>
</svg>
